<svg width="630" height="630" viewBox="0 0 630 630" xmlns="http://www.w3.org/2000/svg"><title>burger-king-logo</title><g fill-rule="nonzero" fill="none"><path d="M314.9165 614.332c-165.0322 0-299.4155-134.3807-299.4155-299.4096 0-165.029 133.794-299.999 299.4155-299.999 165.0322 0 299.4155 134.3807 299.4155 299.4096 0 165.029-134.3833 299.999-299.4155 299.999zm0-571.118c-149.7078 0-271.1243 121.4142-271.1243 271.119 0 149.7048 121.4165 271.119 271.1243 271.119 149.7078 0 271.1243-121.4142 271.1243-271.119 0-149.7048-122.006-271.119-271.1243-271.119z" stroke="#ED7902" stroke-width="29.47" fill="#FFF"/><path d="M29.6466 314.333c0-157.3669 127.3105-285.2643 285.2699-285.2643 157.9594 0 285.2699 127.8974 285.2699 285.2643s-127.9 285.2643-285.2699 285.2643c-157.37 0-285.2699-127.308-285.2699-285.2643" fill="#FFF"/><path d="M441.6376 128.086c1.1788-2.9469-1.1788-5.8938-1.1788-5.8938s-19.4502-33.0058-87.2313-40.0785c-36.5428-4.1257-86.0524 3.5364-120.827 22.3968-63.6553 34.1846-73.0858 90.1765-73.0858 90.1765-.5894 1.1788-1.1788 5.3045.5894 7.0727 1.1788 1.7682 3.5364 1.7682 5.894 1.1788 22.3973-7.662 88.4101-29.4695 130.847-40.6679 59.5294-15.9135 108.4497-25.3437 140.2773-30.6482 2.3576-.5894 4.1258-1.1788 4.7152-3.5363" fill="#FDBD10"/><path d="M510.0081 392.1324C474.0547 472.2893 405.6842 528.2812 316.0953 529.46c-65.4235 1.1788-123.1847-21.218-165.0322-60.707l-25.3442 10.609v-38.8997C98.6065 403.92 82.6927 356.769 82.6927 303.724c0-136.1489 104.3239-243.4177 249.9058-243.4177 23.576 0 45.3839 3.5364 61.2977 7.0727-24.7548-8.2514-49.5097-12.3772-77.2115-12.3772-156.1912 0-261.1045 126.7187-261.1045 257.563 0 142.0428 111.3967 261.6888 258.1575 261.6888 140.2773 0 215.7206-98.428 239.886-157.9563l-43.6156-24.165z" fill="#0066B2"/><path d="M212.3608 460.5015c-1.1788 3.5363 1.7682 6.4833 1.7682 6.4833 14.1456 17.6816 76.622 40.0784 144.9925 23.5755 103.7346-24.7543 126.1318-98.428 128.4894-108.4476.5894-2.3575 1.1788-5.3045-1.1788-7.662-1.7682-1.7682-4.1258-1.7682-7.0728-1.1788-72.4963 17.0923-192.734 53.6344-262.2833 83.6933-2.947 1.1787-4.1258 1.7681-4.7152 3.5363" fill="#FDBD10"/><path d="M245.9566 103.9211c-38.311 17.0923-64.2446 57.1708-65.4234 74.263-.5894 6.4833 8.2516 7.6621 9.4304.5894 7.6622-31.2376 32.417-60.707 55.993-74.8524M372.6778 132.8012c20.629-5.3045 31.8276-5.894 32.417-15.3241.5894-15.3241-43.6157-33.5952-84.2843-30.0589 41.258 2.947 66.0129 18.8605 66.0129 29.4695 0 7.0726-5.894 13.556-14.1456 15.9135M385.6446 474.0574c31.2382-12.3771 60.7082-35.3633 77.2115-70.1373 4.7152-10.0196-8.841-15.324-12.9669-3.5363-9.4304 24.7543-29.47 53.6344-64.2446 73.6736" fill="#FFF"/><path d="M473.4653 364.431c20.629-2.3575 34.7746-10.609 42.4368-18.271 7.0728-7.0727 8.841-16.5029 8.841-23.5755v-43.6148l-54.2248 11.7877v12.9666c0 8.2515 4.1258 12.9666 12.9668 11.1984 2.947-.5894 7.0728-1.7682 7.0728-1.7682v10.609s.5894 5.894-12.9668 8.2515c-17.682 2.947-25.9337-8.2515-26.523-27.7013.5893-20.6286 12.3774-33.0058 26.523-35.9527 15.9138-3.5364 25.3442 0 30.6488 1.1787 18.2714 2.947 22.9866-24.165 6.4834-30.6482-12.3774-4.7151-27.7018-5.8939-43.0262-2.947-20.0397 4.1258-59.5295 20.6287-59.5295 74.8525 1.1788 42.436 33.0064 56.5813 61.2977 53.6344M297.2345 410.4034s16.5032-5.8939 18.2714-6.4833c13.5562-4.715 18.2714-12.3771 18.2714-26.5225v-44.2041l38.9005 44.7935c6.4834 6.4833 14.1456 7.0727 21.2184 4.7151 7.6622-2.3575 13.5562-8.8408 14.1456-18.8604V253.0365s-10.0198 2.3576-18.2714 4.7152c-9.4304 2.9469-17.0926 8.8408-17.0926 24.7543v38.3103s-21.8079-27.112-35.9535-41.8466c-7.6622-7.662-20.0396-2.947-20.0396-2.947l-18.8608 5.894-.5894 128.4867zM285.4465 285.453s-11.788 3.5363-21.2185 7.0726c-12.3774 4.7151-19.4502 11.7878-19.4502 30.0589v106.6794s10.6092-3.5364 20.629-7.662c14.1457-5.3046 19.4503-12.9666 19.4503-27.7014.5894-13.556.5894-108.4476.5894-108.4476M227.0958 310.7967c-10.6092-4.7151-20.0396.5894-23.576 6.4833l-33.0064 55.992v-45.383l-38.9005 15.9135v127.8974l27.1124-11.1984s5.3046-1.7682 8.841-6.4833c2.947-4.7151 2.947-12.3772 2.947-12.3772v-40.6678l30.6489 32.4164c6.4834 7.0727 18.8608 10.609 30.0594 1.7682 10.0198-7.6621 8.2516-21.218 2.947-27.7013l-27.7018-28.2907s24.7548-38.8997 28.2912-45.383c4.7152-8.2514 2.3576-18.8604-7.6622-22.9861M150.4737 293.115c0-7.0727-5.3046-10.609-14.735-5.8939v22.3968s2.947-1.1788 5.3046-2.3576c5.3046-2.3575 9.4304-7.0726 9.4304-14.1453zm-15.3244-20.0392c1.7682-.5894 2.947-1.1788 4.1258-1.7682 5.3046-2.3575 8.841-7.0727 8.841-12.9666 0-7.0726-5.3046-8.8408-12.9668-4.715v19.4498zm40.0793 17.0923c.5894 17.6816-12.3775 27.1119-29.47 34.1845l-34.1853 14.7347V245.964s21.8078-8.8409 28.8806-11.1984c20.0396-7.0727 31.8277 1.7682 31.8277 14.7347 0 8.8408-3.5365 16.5029-12.3775 22.9862 8.2516 1.7682 15.3245 8.2514 15.3245 17.6817zM240.652 211.7793c0-7.662-5.3046-10.0196-11.788-8.2514-5.3046 1.7681-11.1986 4.1257-11.1986 4.1257v57.7601c0 5.894-1.1788 12.9666-8.2516 14.7347-5.3046 1.1788-8.2516-2.3575-8.2516-8.2514v-47.1511c0-7.662-5.3046-10.0196-11.788-8.2515-7.0728 2.3576-11.788 4.1258-11.788 4.1258v57.1707c0 19.4498 12.9668 28.88 33.5958 22.9862 17.682-5.3045 29.47-15.3242 30.0594-40.6679l-.5894-48.3299zM431.0284 235.3549c5.3046-1.1788 8.2516-4.7151 8.2516-11.1984v-10.0196l-27.7018 5.8939v-16.503s13.5562-2.9469 17.682-3.5363c4.7152-1.1787 7.0728-3.5363 7.0728-8.8408v-9.4302l-24.7548 5.3045v-12.9666s12.9668-2.947 20.0396-4.1257c5.3046-1.1788 7.0728-4.7151 7.0728-10.0196v-10.0196c-12.3774 2.3575-35.9534 7.0726-50.099 10.0196v84.872c-.5894.5894 27.7018-5.8939 42.4368-9.4302M270.122 231.8185s13.5563-7.0726 13.5563-18.271c0-9.4302-8.841-7.662-13.5562-5.894v24.165zm0 12.9666v22.9862c0 5.8939-4.1257 10.609-9.4304 12.3771-4.7152 1.7682-14.1456 4.7152-14.1456 4.7152V197.634s19.4503-7.0727 31.2383-9.4302c17.682-4.1258 30.6488 4.1257 30.0594 18.271 0 13.556-7.6622 21.8074-14.735 27.7013l15.3244 14.7347c4.7152 4.7151 4.7152 12.3772 0 17.6817-2.947 2.947-11.1986 5.8939-17.682-.5894l-20.629-21.218zM467.5713 185.2568s13.5562-5.3045 13.5562-15.9135c0-9.4302-9.4304-7.662-13.5562-6.4833v22.3968zm-22.9867 47.7405v-83.6932s24.1655-4.1257 30.6489-5.3045c17.682-2.3576 29.47 7.662 28.8806 21.218 0 12.3772-7.6622 19.4498-14.1456 23.5755 0 0 11.788 13.556 15.3244 17.0923 4.1258 4.7151 4.1258 12.9666-2.3576 17.0923-6.4834 4.1257-12.3774 1.7682-15.9138-2.3576l-19.4502-22.9861v20.6286c0 5.8939-3.5364 10.609-10.0199 11.7878l-12.9668 2.947z" fill="#EC1C24"/><path d="M382.6976 197.634l-34.7747 8.2514v9.4302c0 4.7152 2.947 7.6621 7.6622 6.4833 2.947-.5894 5.3046-1.1788 5.3046-1.1788v9.4303c0 3.5363-5.894 6.4833-11.788 5.8939-8.2516 0-12.9668-6.4833-12.9668-18.8605 0-15.9135 7.6622-25.9331 18.2714-28.2907 5.3046-1.1787 10.0199-.5893 13.5563 0 8.841 1.1788 14.1456-2.9469 14.1456-10.0196 0-7.662-7.0728-12.9665-21.8079-12.3771-32.417 1.1787-49.5096 24.7543-49.5096 52.4556 0 28.88 18.8608 41.2572 41.8474 37.1315 12.9669-2.3576 19.4503-7.0727 23.576-10.609 4.7153-4.1257 6.4835-10.0196 6.4835-14.7347V197.634zM541.8357 369.1462h4.1258c2.3576 0 5.3046.5894 5.3046 2.947 0 2.9469-2.3576 3.5363-4.7152 3.5363h-4.7152v-6.4833zm-5.3046 21.218h4.7152v-10.609h2.947l5.894 10.609h5.3047l-6.4835-11.1984c3.5364-.5894 6.4835-2.3576 6.4835-6.4833 0-5.3045-3.5365-7.662-10.0199-7.662h-8.841v25.3437zm-14.1456-12.3772c0 13.556 11.1986 22.3968 22.9866 22.3968 12.3775 0 22.9867-8.8408 22.9867-22.3968s-11.1986-22.3968-22.9867-22.3968c-11.788 0-22.9866 8.8409-22.9866 22.3968zm5.894 0c0-10.0196 7.6622-17.6816 17.0926-17.6816 9.4305 0 17.0927 7.662 17.0927 17.6816 0 10.609-7.6622 17.6817-17.0927 17.6817-9.4304 0-17.0926-7.0727-17.0926-17.6817z" fill="#EC1C24"/></g></svg>