<svg width="50" height="46" viewBox="0 0 50 46" fill="none" xmlns="http://www.w3.org/2000/svg">
<mask id="path-1-outside-1_1_5" maskUnits="userSpaceOnUse" x="-0.984375" y="0" width="51" height="46" fill="black">
<rect fill="white" x="-0.984375" width="51" height="46"/>
<path d="M5 41V5H17V13.0156H21.0078V9.00781H29V13.0156H33.0078V5H45.0078V41H33.0078V37.0156H29V33.0078H21.0078V37.0156H17V41H5Z"/>
</mask>
<path d="M5 41V5H17V13.0156H21.0078V9.00781H29V13.0156H33.0078V5H45.0078V41H33.0078V37.0156H29V33.0078H21.0078V37.0156H17V41H5Z" fill="#6BBF7C"/>
<path d="M5 41H0V46H5V41ZM5 5V0H0V5H5ZM17 5H22V0H17V5ZM17 13.0156H12V18.0156H17V13.0156ZM21.0078 13.0156V18.0156H26.0078V13.0156H21.0078ZM21.0078 9.00781V4.00781H16.0078V9.00781H21.0078ZM29 9.00781H34V4.00781H29V9.00781ZM29 13.0156H24V18.0156H29V13.0156ZM33.0078 13.0156V18.0156H38.0078V13.0156H33.0078ZM33.0078 5V0H28.0078V5H33.0078ZM45.0078 5H50.0078V0H45.0078V5ZM45.0078 41V46H50.0078V41H45.0078ZM33.0078 41H28.0078V46H33.0078V41ZM33.0078 37.0156H38.0078V32.0156H33.0078V37.0156ZM29 37.0156H24V42.0156H29V37.0156ZM29 33.0078H34V28.0078H29V33.0078ZM21.0078 33.0078V28.0078H16.0078V33.0078H21.0078ZM21.0078 37.0156V42.0156H26.0078V37.0156H21.0078ZM17 37.0156V32.0156H12V37.0156H17ZM17 41V46H22V41H17ZM5 41H10V5H5H0V41H5ZM5 5V10H17V5V0H5V5ZM17 5H12V13.0156H17H22V5H17ZM17 13.0156V18.0156H21.0078V13.0156V8.01562H17V13.0156ZM21.0078 13.0156H26.0078V9.00781H21.0078H16.0078V13.0156H21.0078ZM21.0078 9.00781V14.0078H29V9.00781V4.00781H21.0078V9.00781ZM29 9.00781H24V13.0156H29H34V9.00781H29ZM29 13.0156V18.0156H33.0078V13.0156V8.01562H29V13.0156ZM33.0078 13.0156H38.0078V5H33.0078H28.0078V13.0156H33.0078ZM33.0078 5V10H45.0078V5V0H33.0078V5ZM45.0078 5H40.0078V41H45.0078H50.0078V5H45.0078ZM45.0078 41V36H33.0078V41V46H45.0078V41ZM33.0078 41H38.0078V37.0156H33.0078H28.0078V41H33.0078ZM33.0078 37.0156V32.0156H29V37.0156V42.0156H33.0078V37.0156ZM29 37.0156H34V33.0078H29H24V37.0156H29ZM29 33.0078V28.0078H21.0078V33.0078V38.0078H29V33.0078ZM21.0078 33.0078H16.0078V37.0156H21.0078H26.0078V33.0078H21.0078ZM21.0078 37.0156V32.0156H17V37.0156V42.0156H21.0078V37.0156ZM17 37.0156H12V41H17H22V37.0156H17ZM17 41V36H5V41V46H17V41Z" fill="#000100" mask="url(#path-1-outside-1_1_5)"/>
</svg>
