<svg width="85" height="85" viewBox="0 0 85 85" fill="none" xmlns="http://www.w3.org/2000/svg">
<path d="M42.5 0C56.2054 0 68.3933 6.48906 76.165 16.5605C75.9336 16.5543 75.6999 16.5498 75.4639 16.5498C72.3634 16.5498 69.4335 17.1486 66.6748 18.3447C63.9404 19.5166 61.5352 21.2139 59.46 23.4355C58.6544 24.3144 58.0439 25.1808 57.6289 26.0352C57.2139 26.8896 57.0068 27.6836 57.0068 28.416C57.0069 29.1238 57.2022 29.6729 57.5928 30.0635C57.9834 30.4539 58.5324 30.6494 59.2402 30.6494C60.2168 30.6494 61.3643 29.8926 62.6826 28.3789C63.3173 27.6466 63.8301 27.0977 64.2207 26.7314C65.6611 25.3154 67.0771 24.2773 68.4688 23.6182C69.8604 22.959 71.3135 22.6299 72.8271 22.6299C75.0242 22.63 76.794 23.3624 78.1367 24.8271C79.5037 26.2675 80.1875 28.1837 80.1875 30.5762C80.1875 33.1641 79.333 35.8135 77.624 38.5234C75.9149 41.2334 71.7399 45.8597 65.0996 52.4023C63.9277 53.5742 62.3652 55.0391 60.4121 56.7969C57.043 59.8975 55.3584 62.0342 55.3584 63.2061C55.3585 63.9138 55.5538 64.3897 55.9443 64.6338C56.3594 64.8779 57.3115 65 58.8008 65H78.5586C71.0488 77.0099 57.7086 85 42.5 85C20.3873 85 2.22165 68.112 0.191406 46.5303C2.90448 53.5758 5.1817 59.0996 7.02344 63.1016C7.10156 63.2734 7.21094 63.5234 7.35156 63.8516C7.92969 65.2266 8.50781 65.9141 9.08594 65.9141C9.72656 65.9141 10.5547 64.5938 11.5703 61.9531C11.8828 61.1562 12.125 60.5391 12.2969 60.1016L17.3359 47.6328C18.2578 49.8984 19.4219 52.8516 20.8281 56.4922C23.2344 62.7734 24.8516 65.9141 25.6797 65.9141C26.3984 65.9141 27.25 64.6172 28.2344 62.0234C28.5938 61.1016 28.8828 60.3828 29.1016 59.8672L33.7422 48.3828C34.2578 47.1328 34.9375 45.4219 35.7812 43.25C37.9375 37.6875 39.5781 34.5391 40.7031 33.8047C40.9219 33.6641 41.2656 33.4922 41.7344 33.2891C42.6875 32.8828 43.1641 32.3672 43.1641 31.7422C43.1641 31.0703 42.8281 30.6172 42.1562 30.3828C41.4844 30.1328 39.8672 30.0078 37.3047 30.0078C34.6328 30.0078 32.9688 30.1328 32.3125 30.3828C31.6719 30.6172 31.3516 31.0703 31.3516 31.7422C31.3516 32.3672 31.8281 32.875 32.7812 33.2656C33.0156 33.375 33.1953 33.4609 33.3203 33.5234C33.8672 33.7578 34.2578 34.0469 34.4922 34.3906C34.7422 34.7344 34.8672 35.1641 34.8672 35.6797C34.8672 36.6797 33.1797 41.2422 29.8047 49.3672L29.3828 50.3984C28.6328 52.2266 28.0938 53.4141 27.7656 53.9609C27.4531 54.5078 27.1797 54.7812 26.9453 54.7812C26.7109 54.7812 26.4062 54.4375 26.0312 53.75C25.6562 53.0469 25.0938 51.7422 24.3438 49.8359C22.4062 44.8984 21.0469 41.3281 20.2656 39.125C19.5 36.9062 19.1172 35.5 19.1172 34.9062C19.1172 34.5469 19.2109 34.25 19.3984 34.0156C19.5859 33.7812 19.8672 33.6016 20.2422 33.4766C20.3047 33.4453 20.375 33.4141 20.4531 33.3828C21.6719 32.9297 22.2812 32.3828 22.2812 31.7422C22.2812 31.0703 21.9062 30.6172 21.1562 30.3828C20.4062 30.1328 18.4922 30.0078 15.4141 30.0078C12.3203 30.0078 10.3906 30.1328 9.625 30.3828C8.875 30.6172 8.5 31.0703 8.5 31.7422C8.5 32.3516 8.89844 32.8125 9.69531 33.125C10.5078 33.4219 10.9766 33.6172 11.1016 33.7109C11.6797 34.1641 12.2969 35.0703 12.9531 36.4297C13.625 37.7891 14.4766 39.9375 15.5078 42.875C15.0234 44.0938 14.3906 45.7109 13.6094 47.7266C11.7969 52.4297 10.6719 54.7812 10.2344 54.7812C9.96875 54.7812 9.67188 54.4922 9.34375 53.9141C9.03125 53.3203 8.41406 51.8438 7.49219 49.4844C5.41406 44.1719 4.03906 40.5547 3.36719 38.6328C2.69531 36.6953 2.35938 35.4531 2.35938 34.9062C2.35938 34.5469 2.44531 34.2578 2.61719 34.0391C2.80469 33.8047 3.10938 33.6094 3.53125 33.4531L3.67188 33.4062C4.9375 32.9375 5.57031 32.3828 5.57031 31.7422C5.57031 31.0703 5.19531 30.6172 4.44531 30.3828C3.99654 30.2332 3.13095 30.1294 1.84863 30.0693C7.16488 12.6622 23.3529 0 42.5 0ZM49.4922 40.2266C48.9766 40.2266 48.1094 40.3828 46.8906 40.6953C45.6719 40.9922 44.4453 41.3828 43.2109 41.8672C42.5078 42.1484 42 42.4375 41.6875 42.7344C41.3906 43.0156 41.2422 43.3359 41.2422 43.6953C41.2422 44.2422 41.7344 44.6719 42.7188 44.9844C43.2344 45.1406 43.6172 45.2812 43.8672 45.4062C44.1953 45.5781 44.4219 46.0547 44.5469 46.8359C44.6719 47.6172 44.7344 49.2891 44.7344 51.8516V54.3828C44.7344 54.8984 44.7422 55.5547 44.7578 56.3516C44.7734 57.1484 44.7812 57.6953 44.7812 57.9922C44.7812 59.2266 44.6953 60.1172 44.5234 60.6641C44.3516 61.2109 44.0547 61.6016 43.6328 61.8359C43.5078 61.8984 43.2969 61.9844 43 62.0938C42.2031 62.3906 41.8047 62.8125 41.8047 63.3594C41.8047 64.0781 42.2031 64.5703 43 64.8359C43.8125 65.1016 45.4609 65.2344 47.9453 65.2344C50.0703 65.2344 51.5312 65.1094 52.3281 64.8594C53.125 64.5938 53.5234 64.1484 53.5234 63.5234C53.5234 62.8984 53.1094 62.4375 52.2812 62.1406C51.875 61.9844 51.5703 61.8516 51.3672 61.7422C51.0078 61.5547 50.7578 61.1406 50.6172 60.5C50.4766 59.8594 50.4062 58.7656 50.4062 57.2188C50.4062 55.9375 50.4375 53.9375 50.5 51.2188V51.0781L50.6875 44.8438C50.7031 44.4844 50.7109 44.1172 50.7109 43.7422C50.7266 43.3672 50.7344 42.8828 50.7344 42.2891C50.7344 41.5391 50.6328 41.0078 50.4297 40.6953C50.2422 40.3828 49.9297 40.2266 49.4922 40.2266ZM85 42.5C85 47.6949 84.0654 52.6711 82.3594 57.2725C82.3558 57.2725 82.3522 57.2734 82.3486 57.2734H70.3369C69.9707 57.2734 69.6895 57.2363 69.4941 57.1631C69.3234 57.0899 69.2385 56.9802 69.2383 56.834C69.2383 56.7607 69.2627 56.6504 69.3115 56.5039C69.3848 56.3575 69.4825 56.1864 69.6045 55.9912C71.3379 54.3555 73.755 52.1952 76.8555 49.5098C79.956 46.8242 82.1162 44.8828 83.3369 43.6865C83.9253 43.1091 84.4765 42.539 84.9932 41.9785C84.9953 42.1521 85 42.3259 85 42.5ZM47.2422 29.5859C46.1484 29.5859 45.2188 29.9141 44.4531 30.5703C43.6875 31.2266 43.3047 32.0156 43.3047 32.9375C43.3047 33.7969 43.6484 34.5078 44.3359 35.0703C45.0234 35.6328 45.8906 35.9141 46.9375 35.9141C48.0781 35.9141 49.0234 35.6016 49.7734 34.9766C50.5391 34.3516 50.9219 33.5938 50.9219 32.7031C50.9219 31.8125 50.5703 31.0703 49.8672 30.4766C49.1797 29.8828 48.3047 29.5859 47.2422 29.5859Z" fill="#FFFAFA"/>
</svg>
