<?xml version="1.0" encoding="UTF-8"?>
<svg xmlns="http://www.w3.org/2000/svg" id="Layer_1" data-name="Layer 1" viewBox="0 0 24 24" fill="white">
  <path d="M22.965,20.576c-.004-.04-.479-4.088-1.533-9.258-1.064-5.214-2.205-9.081-2.217-9.12-.092-.31-.328-.557-.634-.662-.065-.022-1.618-.545-3.268-.209-.64,.131-1.217,.377-1.686,.631-.043-.036-.089-.069-.138-.099-.06-.035-1.478-.86-3.16-.86-1.096,0-2.083,.352-2.651,.605-.569-.254-1.555-.605-2.653-.605-1.678,0-3.099,.824-3.159,.859-.279,.165-.461,.454-.489,.776-.004,.041-.349,4.102-.349,9.379,0,5.321,.345,9.339,.349,9.379,.028,.328,.217,.621,.503,.783,.06,.034,1.472,.823,3.145,.823,1.098,0,2.087-.342,2.652-.585,.564,.243,1.552,.585,2.652,.585,1.668,0,3.084-.789,3.144-.823,.287-.162,.476-.456,.504-.785,.003-.03,.187-2.198,.286-5.416,.827,3.6,1.544,6.032,1.553,6.062,.093,.316,.336,.565,.65,.667,.048,.016,1.632,.497,3.246,.176h0c1.635-.334,2.864-1.392,2.916-1.437,.249-.217,.375-.542,.336-.87Zm-7.405-8.056c-.338-1.657-.615-3.195-.836-4.518l3.747-.767c.314,1.299,.661,2.821,1,4.483,.336,1.645,.612,3.174,.831,4.49l-3.75,.767c-.312-1.292-.656-2.804-.993-4.456Zm-12.532-.505c0-1.691,.036-3.253,.084-4.593h3.525v9.158H3.111c-.048-1.329-.083-2.879-.083-4.565Zm5.609-4.593h3.604c.048,1.336,.084,2.896,.084,4.593,0,1.679-.035,3.231-.083,4.565h-3.605V7.421ZM15.714,3.287c.653-.133,1.311-.059,1.739,.023,.121,.433,.307,1.111,.533,1.983l-3.575,.732c-.134-.889-.229-1.586-.287-2.033,.361-.244,.937-.571,1.59-.705Zm-3.686,.085c.032,.449,.079,1.15,.126,2.049h-3.516V3.369c.404-.167,1.029-.369,1.691-.369,.668,0,1.297,.205,1.699,.372Zm-7.003-.372c.622,0,1.21,.177,1.613,.337v2.084H3.201c.047-.898,.093-1.6,.125-2.049,.402-.167,1.031-.372,1.699-.372Zm-1.7,17.646c-.033-.454-.08-1.161-.127-2.066h3.44v2.1c-.406,.153-.993,.321-1.613,.321-.667,0-1.295-.194-1.7-.354Zm7.004,.354c-.663,0-1.286-.191-1.691-.351v-2.069h3.517c-.047,.903-.093,1.611-.126,2.066-.406,.161-1.034,.355-1.7,.355Zm8.983-.077c-.655,.133-1.309,.069-1.736-.007-.123-.438-.31-1.121-.537-1.999l3.579-.732c.135,.895,.231,1.598,.29,2.049-.365,.239-.942,.555-1.595,.689Z"/>
</svg>
